<svg width="1816" height="1219" viewBox="0 0 1816 1219" fill="none" xmlns="http://www.w3.org/2000/svg">
<path d="M131.999 304.173C53.5898 387.569 124.626 651.832 152.946 720.555C216.448 875.468 110.575 857.441 107.614 998.059C104.652 1138.68 391.818 1216.62 657.178 1137.76C977.191 1042.66 857.064 993.38 1291.09 1008.76C1725.12 1024.13 1770.57 639.195 1743.12 593.769C1719.86 555.273 1770.47 388.877 1701.93 361.54C1669.63 348.659 1669.93 239.04 1558.86 262.227C1437.4 287.581 1333.79 108.29 1209.16 198.281C1084.54 288.272 1078.12 80.2031 900.135 139.749C722.151 199.294 517.244 131.617 414.927 185.54C218.87 288.866 229.187 200.801 131.999 304.173Z" fill="url(#paint0_linear)"/>
<defs>
<linearGradient id="paint0_linear" x1="89.5473" y1="345.598" x2="2031.85" y2="852.308" gradientUnits="userSpaceOnUse">
<stop stop-color="#0470DC"/>
<stop offset="1" stop-color="#70DDFF"/>
</linearGradient>
</defs>
</svg>
