<svg width="1558" height="868" viewBox="0 0 1558 868" fill="none" xmlns="http://www.w3.org/2000/svg">
<path d="M239 78.1336C169 67.3335 92.5 137.967 63 174.634L55 733.538H1558V209.134C1485 234.134 1504 120.634 1354 28.1337C1204 -64.3663 1097 99.6337 978 168.634C859 237.634 756.5 54.1336 671 50.6336C585.5 47.1336 562 128.134 468 174.634C374 221.133 326.5 91.6336 239 78.1336Z" fill="white"/>
<g clip-path="url(#clip0)">
<path d="M293.051 385.622C299.696 378.406 304.632 369.92 307.526 360.739C310.42 351.557 311.204 341.894 309.826 332.4C308.448 322.906 304.94 313.803 299.539 305.706C294.137 297.609 286.968 290.706 278.515 285.464C282.886 279.037 285.203 271.546 285.186 263.897C285.186 242.268 267.129 224.732 244.809 224.732C235.997 224.789 227.445 227.573 220.45 232.66C213.455 237.747 208.399 244.861 206.048 252.922C200.796 244.374 193.282 237.276 184.252 232.332C175.221 227.388 164.986 224.768 154.56 224.732C121.355 224.732 94.432 250.791 94.432 283.104C94.4267 289.974 95.6725 296.793 98.1143 303.261C96.8869 303.169 95.6756 303.077 94.432 303.077C67.7675 303.077 46.1581 324.046 46.1581 349.921C46.1581 351.454 46.255 353.094 46.4165 354.658C35.5669 359.276 26.3644 366.786 19.9276 376.275C13.4908 385.764 10.097 396.823 10.1587 408.109C10.1587 440.299 37.0008 466.357 70.0932 466.357C73.575 466.356 77.05 466.063 80.4779 465.484C80.3003 467.415 80.1872 469.377 80.1872 471.355C80.1872 507.408 110.308 536.639 147.438 536.639C161.198 536.633 174.612 532.537 185.795 524.928C194.786 532.422 206.341 536.557 218.306 536.563C246.069 536.563 268.55 514.735 268.55 487.787C268.55 486.622 268.454 485.472 268.373 484.338H268.55C298.267 484.338 322.364 460.946 322.364 432.113C322.409 422.564 319.702 413.184 314.535 404.989C309.369 396.795 301.939 390.097 293.051 385.622V385.622Z" fill="url(#paint0_linear)"/>
<path d="M183.647 316.29H175.782V679.916H183.647V316.29Z" fill="#DCE7FF"/>
<path d="M239.558 357.33L175.068 423.429L180.839 428.501L245.329 362.402L239.558 357.33Z" fill="#DCE7FF"/>
<path d="M113.429 432.687L108.739 438.68L175.605 485.812L180.294 479.819L113.429 432.687Z" fill="#DCE7FF"/>
<path d="M208.406 458.793C198.305 448.594 192.675 435.128 192.659 421.131C192.716 411.474 195.408 401.996 200.475 393.622C205.542 385.248 212.81 378.264 221.569 373.351C217.64 367.942 215.533 361.527 215.528 354.957C215.528 336.563 231.84 321.54 251.98 321.54C259.753 321.468 267.345 323.766 273.64 328.096C279.934 332.425 284.598 338.558 286.946 345.591C291.913 338.174 298.785 332.076 306.915 327.87C315.045 323.663 324.167 321.485 333.427 321.54C363.419 321.54 387.741 343.828 387.741 371.328C387.755 377.203 386.639 383.032 384.446 388.527C385.545 388.45 386.643 388.373 387.773 388.373C411.838 388.373 431.38 406.262 431.38 428.335C431.378 429.687 431.302 431.038 431.154 432.382C440.745 436.07 448.968 442.376 454.781 450.502C460.594 458.628 463.736 468.209 463.81 478.031C463.81 505.453 439.584 527.665 409.674 527.665C406.534 527.664 403.401 527.413 400.306 526.914C400.468 528.569 400.565 530.24 400.565 531.926C400.565 562.691 373.383 587.63 339.839 587.63C327.542 587.637 315.521 584.168 305.309 577.667C297.034 584.113 286.653 587.625 275.947 587.6C250.882 587.6 230.565 568.96 230.565 545.982C230.565 544.986 230.661 544.005 230.726 543.039H230.565C203.739 543.039 181.984 523.112 181.984 498.479C182.047 490.183 184.556 482.069 189.225 475.056C193.895 468.042 200.539 462.409 208.406 458.793V458.793Z" fill="url(#paint1_linear)"/>
<path d="M316.243 400.529H306.423V710.076H316.243V400.529Z" fill="#DCE7FF"/>
<path d="M257.598 433.607L250.586 440.131L308.823 496.515L315.835 489.991L257.598 433.607Z" fill="#DCE7FF"/>
<path d="M369.896 497.662L309.521 537.875L315.161 545.504L375.537 505.291L369.896 497.662Z" fill="#DCE7FF"/>
<path d="M358.686 756.851H176.186V763.304H358.686V756.851Z" fill="url(#paint2_linear)"/>
<path d="M494.351 730.792H376.452V737.245H494.351V730.792Z" fill="url(#paint3_linear)"/>
<path d="M541.187 756.851H474.97V763.304H541.187V756.851Z" fill="url(#paint4_linear)"/>
<path d="M245.633 861.085H195.566V867.539H245.633V861.085Z" fill="url(#paint5_linear)"/>
<path d="M836.741 802.837H688.157V809.29H836.741V802.837Z" fill="url(#paint6_linear)"/>
<path d="M902.958 767.581H852.892V774.034H902.958V767.581Z" fill="url(#paint7_linear)"/>
<path d="M357.507 758.23H178.721V761.955H357.507V758.23Z" fill="#B0BEC5"/>
<path d="M491.104 732.125H381.087V735.85H491.104V732.125Z" fill="#B0BEC5"/>
<path d="M536.294 758.23H481.285V761.955H536.294V758.23Z" fill="#B0BEC5"/>
<path d="M834.932 804.86H691.516V808.585H834.932V804.86Z" fill="#B0BEC5"/>
<path d="M899.76 769.42H856.542V773.145H899.76V769.42Z" fill="#B0BEC5"/>
<path d="M241.595 862.664H200.331V866.389H241.595V862.664Z" fill="#B0BEC5"/>
<path d="M412.516 377.835H406.621V398.345H412.516V377.835Z" fill="#70DDFF"/>
<path d="M412.516 372.24H357.507V377.835H412.516V372.24Z" fill="#70DDFF"/>
<path d="M408.139 432.834C419.173 432.834 428.117 424.345 428.117 413.872C428.117 403.4 419.173 394.911 408.139 394.911C397.106 394.911 388.161 403.4 388.161 413.872C388.161 424.345 397.106 432.834 408.139 432.834Z" fill="url(#paint8_linear)"/>
<path d="M408.139 428.281C418.308 428.281 426.551 420.458 426.551 410.807C426.551 401.156 418.308 393.332 408.139 393.332C397.971 393.332 389.728 401.156 389.728 410.807C389.728 420.458 397.971 428.281 408.139 428.281Z" fill="#FFEB3B"/>
<path d="M363.402 318.16H357.507V596.007H363.402V318.16Z" fill="#70DDFF"/>
<path d="M360.011 321.472C368.11 321.472 374.675 315.24 374.675 307.553C374.675 299.866 368.11 293.635 360.011 293.635C351.912 293.635 345.346 299.866 345.346 307.553C345.346 315.24 351.912 321.472 360.011 321.472Z" fill="#4F79A4"/>
<path d="M436.096 392.75H381.087V398.344H436.096V392.75Z" fill="#70DDFF"/>
<path d="M359.672 676.207C349.351 676.207 340.921 678.552 340.921 668.757V597.556C340.934 592.838 342.913 588.317 346.426 584.979C349.939 581.642 354.701 579.76 359.672 579.744V579.744C364.642 579.76 369.404 581.642 372.917 584.979C376.43 588.317 378.41 592.838 378.422 597.556V668.757C378.422 678.552 369.992 676.207 359.672 676.207Z" fill="#70DDFF"/>
<path d="M1350.84 377.835H1344.95V398.345H1350.84V377.835Z" fill="#70DDFF"/>
<path d="M1399.96 372.24H1344.95V377.835H1399.96V372.24Z" fill="#70DDFF"/>
<path d="M1349.31 432.834C1360.34 432.834 1369.29 424.345 1369.29 413.872C1369.29 403.4 1360.34 394.911 1349.31 394.911C1338.28 394.911 1329.33 403.4 1329.33 413.872C1329.33 424.345 1338.28 432.834 1349.31 432.834Z" fill="url(#paint9_linear)"/>
<path d="M1349.31 428.281C1359.48 428.281 1367.72 420.458 1367.72 410.807C1367.72 401.156 1359.48 393.332 1349.31 393.332C1339.14 393.332 1330.9 401.156 1330.9 410.807C1330.9 420.458 1339.14 428.281 1349.31 428.281Z" fill="#FFEB3B"/>
<path d="M1399.96 318.16H1394.06V596.007H1399.96V318.16Z" fill="#70DDFF"/>
<path d="M1397.45 321.472C1405.55 321.472 1412.12 315.24 1412.12 307.553C1412.12 299.866 1405.55 293.635 1397.45 293.635C1389.36 293.635 1382.79 299.866 1382.79 307.553C1382.79 315.24 1389.36 321.472 1397.45 321.472Z" fill="#4F79A4"/>
<path d="M1376.38 392.75H1321.37V398.344H1376.38V392.75Z" fill="#70DDFF"/>
<path d="M1397.78 676.207C1408.1 676.207 1416.53 678.552 1416.53 668.757V597.556C1416.52 592.838 1414.54 588.317 1411.02 584.979C1407.51 581.642 1402.75 579.76 1397.78 579.744V579.744C1392.81 579.76 1388.04 581.642 1384.53 584.979C1381.02 588.317 1379.04 592.838 1379.03 597.556V668.757C1379.03 678.552 1387.39 676.207 1397.78 676.207Z" fill="#70DDFF"/>
<g opacity="0.1">
<path opacity="0.1" d="M737.722 513.447C737.722 513.447 737.722 513.279 737.722 513.202C737.8 513.262 737.865 513.335 737.916 513.417C738.101 513.807 738.189 514.231 738.175 514.658C738.168 514.709 738.168 514.761 738.175 514.812C737.942 514.385 737.789 513.923 737.722 513.447Z" fill="black"/>
</g>
<path d="M1091.34 668.19C1091.64 668.19 1091.89 667.956 1091.89 667.669C1091.89 667.381 1091.64 667.147 1091.34 667.147C1091.03 667.147 1090.79 667.381 1090.79 667.669C1090.79 667.956 1091.03 668.19 1091.34 668.19Z" fill="#E8F5FF"/>
<path d="M1086.7 663.254C1087.01 663.254 1087.25 663.021 1087.25 662.733C1087.25 662.445 1087.01 662.212 1086.7 662.212C1086.4 662.212 1086.15 662.445 1086.15 662.733C1086.15 663.021 1086.4 663.254 1086.7 663.254Z" fill="#E8F5FF"/>
<path d="M1084.99 665.599C1085.29 665.599 1085.54 665.366 1085.54 665.078C1085.54 664.79 1085.29 664.557 1084.99 664.557C1084.69 664.557 1084.44 664.79 1084.44 665.078C1084.44 665.366 1084.69 665.599 1084.99 665.599Z" fill="#E8F5FF"/>
<path d="M1083.07 667.454C1083.37 667.454 1083.62 667.221 1083.62 666.933C1083.62 666.645 1083.37 666.412 1083.07 666.412C1082.77 666.412 1082.52 666.645 1082.52 666.933C1082.52 667.221 1082.77 667.454 1083.07 667.454Z" fill="#E8F5FF"/>
<path d="M1088.51 669.002C1088.81 669.002 1089.06 668.769 1089.06 668.481C1089.06 668.193 1088.81 667.96 1088.51 667.96C1088.21 667.96 1087.96 668.193 1087.96 668.481C1087.96 668.769 1088.21 669.002 1088.51 669.002Z" fill="#E8F5FF"/>
<path opacity="0.1" d="M1230.26 669.554C1230.26 669.554 1230.26 669.554 1230.39 669.723C1230.52 669.891 1230.28 669.585 1230.26 669.554Z" fill="black"/>
</g>
<circle cx="260.5" cy="126.038" r="6.5" fill="#FFEB3B"/>
<circle cx="1173.5" cy="200.039" r="6.5" fill="#DCE7FF"/>
<circle cx="1271.5" cy="163.039" r="3.5" fill="#6C63FF"/>
<circle cx="1134" cy="166.538" r="13" fill="#70DDFF"/>
<defs>
<linearGradient id="paint0_linear" x1="83.5" y1="258.539" x2="187.5" y2="528.539" gradientUnits="userSpaceOnUse">
<stop stop-color="#0470DC"/>
<stop offset="1" stop-color="#70DDFF"/>
</linearGradient>
<linearGradient id="paint1_linear" x1="279" y1="397.568" x2="396" y2="668.568" gradientUnits="userSpaceOnUse">
<stop stop-color="#0470DC"/>
<stop offset="1" stop-color="#6BD7FD"/>
<stop offset="1" stop-color="#70DDFF"/>
</linearGradient>
<linearGradient id="paint2_linear" x1="30396.5" y1="3067.18" x2="30396.5" y2="3040.01" gradientUnits="userSpaceOnUse">
<stop stop-color="#808080" stop-opacity="0.25"/>
<stop offset="0.54" stop-color="#808080" stop-opacity="0.12"/>
<stop offset="1" stop-color="#808080" stop-opacity="0.1"/>
</linearGradient>
<linearGradient id="paint3_linear" x1="32160.7" y1="2931.37" x2="32160.7" y2="2904.2" gradientUnits="userSpaceOnUse">
<stop stop-color="#808080" stop-opacity="0.25"/>
<stop offset="0.54" stop-color="#808080" stop-opacity="0.12"/>
<stop offset="1" stop-color="#808080" stop-opacity="0.1"/>
</linearGradient>
<linearGradient id="paint4_linear" x1="21306.2" y1="3067.18" x2="21306.2" y2="3040.01" gradientUnits="userSpaceOnUse">
<stop stop-color="#808080" stop-opacity="0.25"/>
<stop offset="0.54" stop-color="#808080" stop-opacity="0.12"/>
<stop offset="1" stop-color="#808080" stop-opacity="0.1"/>
</linearGradient>
<linearGradient id="paint5_linear" x1="7034.16" y1="3610.19" x2="7034.16" y2="3583.03" gradientUnits="userSpaceOnUse">
<stop stop-color="#808080" stop-opacity="0.25"/>
<stop offset="0.54" stop-color="#808080" stop-opacity="0.12"/>
<stop offset="1" stop-color="#808080" stop-opacity="0.1"/>
</linearGradient>
<linearGradient id="paint6_linear" x1="70833.5" y1="3306.77" x2="70833.5" y2="3279.6" gradientUnits="userSpaceOnUse">
<stop stop-color="#808080" stop-opacity="0.25"/>
<stop offset="0.54" stop-color="#808080" stop-opacity="0.12"/>
<stop offset="1" stop-color="#808080" stop-opacity="0.1"/>
</linearGradient>
<linearGradient id="paint7_linear" x1="28068.6" y1="3123.08" x2="28068.6" y2="3095.91" gradientUnits="userSpaceOnUse">
<stop stop-color="#808080" stop-opacity="0.25"/>
<stop offset="0.54" stop-color="#808080" stop-opacity="0.12"/>
<stop offset="1" stop-color="#808080" stop-opacity="0.1"/>
</linearGradient>
<linearGradient id="paint8_linear" x1="10485.5" y1="5795.53" x2="10485.5" y2="4856.94" gradientUnits="userSpaceOnUse">
<stop stop-color="#808080" stop-opacity="0.25"/>
<stop offset="0.54" stop-color="#808080" stop-opacity="0.12"/>
<stop offset="1" stop-color="#808080" stop-opacity="0.1"/>
</linearGradient>
<linearGradient id="paint9_linear" x1="-20515" y1="14420" x2="-20515" y2="13481.4" gradientUnits="userSpaceOnUse">
<stop stop-color="#808080" stop-opacity="0.25"/>
<stop offset="0.54" stop-color="#808080" stop-opacity="0.12"/>
<stop offset="1" stop-color="#808080" stop-opacity="0.1"/>
</linearGradient>
<clipPath id="clip0">
<rect width="1444" height="653" fill="white" transform="translate(0 214.539)"/>
</clipPath>
</defs>
</svg>
