<svg width="54" height="54" viewBox="0 0 54 54" fill="none" xmlns="http://www.w3.org/2000/svg">
<circle cx="27" cy="27" r="26.5" stroke="#F2F3F3"/>
<path d="M32.5508 24.9062C32.569 24.9792 32.5781 25.0977 32.5781 25.2617C32.5781 26.5742 32.2591 27.8411 31.6211 29.0625C30.9648 30.3568 30.0443 31.3867 28.8594 32.1523C27.5651 33.0091 26.0794 33.4375 24.4023 33.4375C22.7982 33.4375 21.3307 33.0091 20 32.1523C20.2005 32.1706 20.4284 32.1797 20.6836 32.1797C22.0143 32.1797 23.2083 31.7695 24.2656 30.9492C23.6276 30.9492 23.0625 30.7669 22.5703 30.4023C22.0964 30.0195 21.7682 29.5456 21.5859 28.9805C21.7682 28.9987 21.9414 29.0078 22.1055 29.0078C22.3607 29.0078 22.6159 28.9805 22.8711 28.9258C22.2148 28.7799 21.668 28.4427 21.2305 27.9141C20.793 27.3854 20.5742 26.7839 20.5742 26.1094V26.0547C20.9753 26.2917 21.4036 26.4193 21.8594 26.4375C21.4766 26.1641 21.1667 25.8177 20.9297 25.3984C20.6927 24.9792 20.5742 24.5234 20.5742 24.0312C20.5742 23.5208 20.7109 23.0378 20.9844 22.582C21.6953 23.4753 22.5612 24.1862 23.582 24.7148C24.6211 25.2435 25.724 25.5352 26.8906 25.5898C26.8542 25.3711 26.8359 25.1523 26.8359 24.9336C26.8359 24.4232 26.9635 23.9492 27.2188 23.5117C27.474 23.056 27.8203 22.7005 28.2578 22.4453C28.6953 22.1901 29.1693 22.0625 29.6797 22.0625C30.099 22.0625 30.4818 22.1445 30.8281 22.3086C31.1927 22.4727 31.5117 22.6914 31.7852 22.9648C32.4414 22.8372 33.0521 22.6094 33.6172 22.2812C33.3984 22.9557 32.9792 23.4844 32.3594 23.8672C32.9062 23.7943 33.4531 23.6393 34 23.4023C33.599 23.9857 33.1159 24.487 32.5508 24.9062Z" fill="#BDD3DF"/>
</svg>
