<svg width="45" height="45" viewBox="0 0 45 45" fill="none" xmlns="http://www.w3.org/2000/svg">
<path d="M41.2499 8.03561H30.75V4.01797C30.7475 1.79996 29.07 0.00264797 27.0002 0H17.9998C15.93 0.00264797 14.2525 1.79996 14.25 4.01797V8.03561H3.7501C1.67996 8.03826 0.00247144 9.83557 0 12.0536V40.982C0.00247144 43.2 1.67996 44.9974 3.7501 45H41.2499C43.32 44.9974 44.9975 43.2 45 40.982V12.0536C44.9975 9.83557 43.32 8.03826 41.2499 8.03561ZM15.7499 4.01797C15.7499 2.68637 16.7573 1.60699 17.9998 1.60699H26.9999C28.2427 1.60699 29.2498 2.68637 29.2498 4.01797V8.03561H27.75V4.01797C27.75 3.5741 27.4142 3.21431 27.0002 3.21431H17.9998C17.5858 3.21431 17.25 3.5741 17.25 4.01797V8.03561H15.7499V4.01797ZM18.7499 8.03561V4.8213H26.2501V8.03561H18.7499ZM1.49986 12.0536C1.49986 10.7223 2.50728 9.64293 3.7501 9.64293H41.2499C42.4927 9.64293 43.4998 10.7223 43.4998 12.0536V20.3689L26.2501 28.5001V26.5178C26.2501 26.0739 25.9143 25.7141 25.5 25.7141H19.5C19.0857 25.7141 18.7499 26.0739 18.7499 26.5178V28.5001L1.49986 20.3689V12.0536ZM24.7499 28.9285H20.2501V27.3215H24.7499V28.9285ZM20.2501 30.5358H24.7499V32.9464C24.7499 34.2777 23.7428 35.3571 22.5 35.3571C21.2575 35.3571 20.2501 34.2777 20.2501 32.9464V30.5358ZM41.2499 43.393H3.7501C2.50728 43.393 1.49986 42.3136 1.49986 40.982V22.1248L18.7499 30.2567V32.9464C18.7499 35.1654 20.4289 36.9644 22.5 36.9644C24.5711 36.9644 26.2501 35.1654 26.2501 32.9464V30.2567L43.4998 22.1248V40.982C43.5001 42.3136 42.4927 43.393 41.2499 43.393V43.393Z" fill="white"/>
</svg>
