<svg width="25" height="25" viewBox="0 0 25 25" fill="none" xmlns="http://www.w3.org/2000/svg">
<path d="M20.8333 2.48223e-06C18.1824 2.48223e-06 16.6667 2.69131 16.6667 5.12695C16.6667 7.19634 17.7736 9.61782 20 10.155V24.2676C20 24.6721 20.3731 25 20.8333 25C21.2936 25 21.6667 24.6721 21.6667 24.2676V10.155C23.8871 9.61929 25 7.20532 25 5.12695C25 2.68975 23.4832 2.48223e-06 20.8333 2.48223e-06V2.48223e-06ZM20.8333 8.78906C19.4782 8.78906 18.3333 7.11201 18.3333 5.12695C18.3333 3.1419 19.4782 1.46485 20.8333 1.46485C22.1885 1.46485 23.3333 3.1419 23.3333 5.12695C23.3333 7.11201 22.1885 8.78906 20.8333 8.78906ZM7.5 2.48223e-06C7.03978 2.48223e-06 6.66667 0.327932 6.66667 0.732424V5.85938H5V0.732424C5 0.327932 4.62689 2.48223e-06 4.16667 2.48223e-06C3.70644 2.48223e-06 3.33333 0.327932 3.33333 0.732424V5.85938H1.66667V0.732424C1.66667 0.327932 1.29356 2.48223e-06 0.833333 2.48223e-06C0.373111 2.48223e-06 0 0.327932 0 0.732424V8.05664C0 9.26821 1.1215 10.2539 2.5 10.2539H3.33333V24.2676C3.33333 24.6721 3.70644 25 4.16667 25C4.62689 25 5 24.6721 5 24.2676V10.2539H5.83333C7.21183 10.2539 8.33333 9.26821 8.33333 8.05664C8.33333 7.33164 8.33333 1.56411 8.33333 0.732424C8.33333 0.327932 7.96022 2.48223e-06 7.5 2.48223e-06ZM6.66667 8.05664C6.66667 8.4605 6.29283 8.78906 5.83333 8.78906H2.5C2.0405 8.78906 1.66667 8.4605 1.66667 8.05664V7.32422H6.66667V8.05664ZM14.6048 0.109377C14.3591 -0.0240698 14.0523 -0.0361792 13.794 0.0772974C11.4698 1.09868 10 3.18682 10 5.47276V12.4512C10 14.2197 11.4338 15.6993 13.3333 16.0396V24.2676C13.3333 24.6721 13.7064 25 14.1667 25C14.6269 25 15 24.6721 15 24.2676C15 22.0388 15 1.89898 15 0.732424C15 0.478567 14.8505 0.242825 14.6048 0.109377V0.109377ZM13.3333 14.5229C12.3633 14.2207 11.6667 13.4061 11.6667 12.4512V5.47276C11.6667 4.1708 12.282 2.96724 13.3333 2.11724V14.5229Z" fill="url(#paint0_linear)"/>
<defs>
<linearGradient id="paint0_linear" x1="12.5" y1="25" x2="12.5" y2="2.98023e-06" gradientUnits="userSpaceOnUse">
<stop stop-color="#0470DC"/>
<stop offset="0.0001" stop-color="#0470DC"/>
<stop offset="0.645833" stop-color="#535BFF"/>
<stop offset="1" stop-color="#00B5FD"/>
</linearGradient>
</defs>
</svg>
