<svg width="25" height="31" viewBox="0 0 25 31" fill="none" xmlns="http://www.w3.org/2000/svg">
<path fill-rule="evenodd" clip-rule="evenodd" d="M5.20817 3.875C4.63288 3.875 4.1665 4.4533 4.1665 5.16667V25.8333C4.1665 26.5467 4.63288 27.125 5.20817 27.125H6.24984C6.82513 27.125 7.2915 26.5467 7.2915 25.8333V5.16667C7.2915 4.4533 6.82513 3.875 6.24984 3.875H5.20817ZM10.4165 3.875C9.84121 3.875 9.37484 4.4533 9.37484 5.16667V25.8333C9.37484 26.5467 9.84121 27.125 10.4165 27.125H11.4582C12.0335 27.125 12.4998 26.5467 12.4998 25.8333V5.16667C12.4998 4.4533 12.0335 3.875 11.4582 3.875H10.4165Z" fill="#0470DC"/>
<path opacity="0.3" d="M16.0084 4.2278L15.0235 4.64832C14.4795 4.88057 14.1904 5.61564 14.3777 6.29014L19.8038 25.8309C19.9911 26.5054 20.5839 26.8639 21.1279 26.6316L22.1128 26.2111C22.6568 25.9789 22.9459 25.2438 22.7586 24.5693L17.3325 5.02857C17.1452 4.35406 16.5524 3.99555 16.0084 4.2278Z" fill="#00B5FD"/>
</svg>
