<svg width="25" height="24" viewBox="0 0 25 24" fill="none" xmlns="http://www.w3.org/2000/svg">
<path d="M7.94048 5.30264C8.42181 5.00012 9.06744 5.12946 9.38257 5.59153C9.69768 6.05359 9.56295 6.67341 9.08163 6.97592C7.32764 8.07833 6.24984 9.95032 6.24984 12C6.24984 15.3137 9.04806 18 12.4998 18C15.9516 18 18.7498 15.3137 18.7498 12C18.7498 9.99551 17.7194 8.15971 16.0286 7.047C15.554 6.73474 15.4331 6.11232 15.7583 5.65679C16.0836 5.20125 16.7319 5.0851 17.2065 5.39736C19.4582 6.87913 20.8332 9.32888 20.8332 12C20.8332 16.4183 17.1022 20 12.4998 20C7.89746 20 4.1665 16.4183 4.1665 12C4.1665 9.26854 5.6046 6.77077 7.94048 5.30264Z" fill="#0470DC"/>
<path opacity="0.3" d="M13.5418 4C13.5418 3.44772 13.0755 3 12.5002 3C11.9249 3 11.4585 3.44772 11.4585 4V12C11.4585 12.5523 11.9249 13 12.5002 13C13.0755 13 13.5418 12.5523 13.5418 12V4Z" fill="#00B5FD"/>
</svg>
