<svg width="25" height="25" viewBox="0 0 25 25" fill="none" xmlns="http://www.w3.org/2000/svg">
<g clip-path="url(#clip0)">
<path d="M21.2273 25H3.77261C3.24478 25 2.81689 24.5721 2.81689 24.0443V3.8627C2.81689 3.33486 3.24478 2.90698 3.77261 2.90698H21.2273C21.7552 2.90698 22.1831 3.33486 22.1831 3.8627V24.0442C22.1831 24.5721 21.7552 25 21.2273 25Z" fill="#D8ECFE"/>
<path d="M12.5001 4.8541C11.964 4.8541 11.5293 4.41943 11.5293 3.8833V0.970801C11.5293 0.434668 11.964 0 12.5001 0C13.0363 0 13.4709 0.434668 13.4709 0.970801V3.8833C13.4709 4.41948 13.0363 4.8541 12.5001 4.8541Z" fill="#26A6FE"/>
<path d="M6.96646 4.8541C6.43027 4.8541 5.99561 4.41943 5.99561 3.8833V0.970801C5.99565 0.434668 6.43027 0 6.96646 0C7.50264 0 7.93726 0.434668 7.93726 0.970801V3.8833C7.93731 4.41948 7.50264 4.8541 6.96646 4.8541Z" fill="#26A6FE"/>
<path d="M18.0343 4.8541C17.4981 4.8541 17.0635 4.41943 17.0635 3.8833V0.970801C17.0635 0.434668 17.4981 0 18.0343 0C18.5705 0 19.0051 0.434668 19.0051 0.970801V3.8833C19.0051 4.41948 18.5705 4.8541 18.0343 4.8541Z" fill="#26A6FE"/>
<path d="M18.7242 10.5726H10.7765C10.332 10.5726 9.97168 10.2122 9.97168 9.76772C9.97168 9.32324 10.332 8.96289 10.7765 8.96289H18.7242C19.1687 8.96289 19.5291 9.32324 19.5291 9.76772C19.5291 10.2123 19.1687 10.5726 18.7242 10.5726Z" fill="#7A8C98"/>
<path d="M18.7242 15.563H10.7765C10.332 15.563 9.97168 15.2027 9.97168 14.7582C9.97168 14.3137 10.332 13.9534 10.7765 13.9534H18.7242C19.1687 13.9534 19.5291 14.3137 19.5291 14.7582C19.5291 15.2027 19.1687 15.563 18.7242 15.563Z" fill="#7A8C98"/>
<path d="M18.7242 20.5538H10.7765C10.332 20.5538 9.97168 20.1934 9.97168 19.7489C9.97168 19.3044 10.332 18.9441 10.7765 18.9441H18.7242C19.1687 18.9441 19.5291 19.3044 19.5291 19.7489C19.5291 20.1935 19.1687 20.5538 18.7242 20.5538Z" fill="#7A8C98"/>
<path d="M6.24287 15.6035L5.52676 14.4404C5.41753 14.263 5.4728 14.0306 5.65024 13.9213C5.82768 13.8121 6.06011 13.8674 6.16929 14.0448L6.60991 14.7604L8.62568 12.3353C8.75884 12.1751 8.99683 12.1532 9.15693 12.2864C9.31719 12.4195 9.33911 12.6574 9.20591 12.8176L6.85425 15.6468C6.68926 15.8454 6.37812 15.8231 6.24287 15.6035V15.6035Z" fill="#7A8C98"/>
<path d="M6.24287 20.5925L5.52676 19.4294C5.41753 19.252 5.4728 19.0196 5.65024 18.9103C5.82768 18.801 6.06011 18.8564 6.16929 19.0337L6.60991 19.7494L8.62568 17.3244C8.75893 17.1641 8.99678 17.1422 9.15698 17.2754C9.31719 17.4085 9.33911 17.6464 9.20596 17.8066L6.8543 20.6358C6.68926 20.8344 6.37812 20.8121 6.24287 20.5925V20.5925Z" fill="#7A8C98"/>
<path d="M6.24287 10.6082L5.52676 9.44507C5.41753 9.26763 5.4728 9.03526 5.65024 8.92598C5.82768 8.8167 6.06011 8.87203 6.16929 9.04942L6.60991 9.76509L8.62568 7.33999C8.75884 7.17974 8.99683 7.15782 9.15693 7.29102C9.31719 7.42417 9.33911 7.66206 9.20591 7.82227L6.85425 10.6515C6.68926 10.85 6.37812 10.8277 6.24287 10.6082V10.6082Z" fill="#7A8C98"/>
<path d="M21.2273 2.90698H19.2896C19.8174 2.90698 20.2453 3.33486 20.2453 3.8627V24.0442C20.2453 24.5721 19.8174 25 19.2896 25H21.2273C21.7551 25 22.183 24.5721 22.183 24.0442V3.8627C22.1831 3.33486 21.7552 2.90698 21.2273 2.90698V2.90698Z" fill="#C4E2FF"/>
<path d="M18.0336 0C17.8277 0 17.6371 0.0645508 17.48 0.173926C17.7319 0.349316 17.8972 0.640576 17.8972 0.97085V3.8833C17.8972 4.21353 17.7319 4.50483 17.48 4.68022C17.6371 4.7896 17.8277 4.85415 18.0336 4.85415C18.5698 4.85415 19.0044 4.41948 19.0044 3.8833V0.970801C19.0044 0.434668 18.5698 0 18.0336 0V0Z" fill="#0593FC"/>
</g>
<defs>
<clipPath id="clip0">
<rect width="25" height="25" fill="white"/>
</clipPath>
</defs>
</svg>
